{"glyphs":{"0":{"ha":878,"x_min":0,"x_max":0,"o":"m 440 -14 b 792 489 672 -14 792 176 b 440 992 792 800 672 992 b 88 489 207 992 88 800 b 440 -14 88 176 207 -14 z m 222 489 b 440 867 222 722 296 867 b 657 489 583 867 657 722 b 440 114 657 254 583 114 b 222 489 296 114 222 254 z "},"1":{"ha":543,"x_min":0,"x_max":0,"o":"m 306 0 l 438 0 l 438 978 l 306 978 l 306 813 l 82 813 l 82 707 l 306 707 z "},"2":{"ha":838,"x_min":0,"x_max":0,"o":"m 83 0 l 753 0 l 753 118 l 226 118 b 476 365 238 179 285 263 b 747 696 567 414 747 504 b 426 992 747 810 683 992 b 92 657 121 992 92 736 l 228 657 b 426 867 228 799 307 867 b 611 703 543 867 611 801 b 342 426 611 556 460 496 b 83 0 149 313 83 197 z "},"3":{"ha":839,"x_min":0,"x_max":0,"o":"m 418 -14 b 754 269 694 -14 754 157 b 594 493 754 417 653 469 l 594 499 b 742 718 708 533 742 635 b 432 992 742 815 694 992 b 96 658 113 992 96 732 l 226 658 b 426 869 226 765 272 869 b 607 710 525 869 607 828 b 382 549 607 590 526 549 l 339 549 l 339 431 l 386 431 b 618 272 467 431 618 414 b 424 114 618 181 554 114 b 218 282 289 114 218 186 l 82 282 b 418 -14 82 196 111 -14 z "},"4":{"ha":831,"x_min":0,"x_max":0,"o":"m 140 274 l 140 274 b 183 204 176 274 183 249 b 140 135 183 161 176 135 b 128 136 136 135 131 135 l 128 272 b 140 274 132 274 136 274 z m 351 224 l 296 224 l 296 271 l 361 271 l 361 306 l 256 306 l 256 104 l 361 104 l 361 138 l 296 138 l 296 190 l 351 190 z m 138 101 l 138 101 b 224 204 200 101 224 133 b 139 308 224 274 201 308 b 88 303 125 308 106 306 l 88 104 b 138 101 106 101 126 101 z m 397 306 l 397 306 b 388 104 393 257 389 169 l 426 104 b 429 249 426 151 428 201 l 431 249 l 458 135 l 496 135 l 524 249 b 528 104 526 201 528 151 l 568 104 b 560 306 565 169 563 257 l 504 306 l 478 194 l 451 306 z m 669 101 l 669 101 b 744 204 725 101 744 133 b 669 308 744 275 725 308 b 596 204 614 308 596 275 b 669 101 596 133 614 101 z m 669 274 b 704 204 699 274 704 250 b 669 135 704 160 699 135 b 636 204 642 135 636 160 b 669 274 636 250 642 274 z m 656 689 l 656 689 b 439 429 540 689 439 429 b 669 529 497 486 569 518 b 742 601 699 533 742 558 b 656 689 742 631 728 689 z m 193 617 l 193 617 b 107 529 136 617 107 574 b 193 457 107 486 150 457 b 410 357 281 457 353 429 b 193 617 410 357 324 617 z m 436 824 l 436 824 b 313 822 394 864 343 853 b 325 710 283 790 294 740 b 410 486 388 650 419 578 b 436 824 410 486 529 733 z "},"5":{"ha":825,"x_min":0,"x_max":0,"o":"m 408 -14 b 742 311 688 -14 742 169 b 435 657 742 524 619 657 b 214 565 322 657 254 607 l 210 567 l 231 867 l 693 867 l 693 978 l 132 978 l 96 429 l 225 417 b 413 533 247 471 297 533 b 606 318 539 533 606 460 b 407 114 606 151 517 114 b 215 290 278 114 219 167 l 83 290 b 408 -14 83 153 146 -14 z "},"6":{"ha":843,"x_min":0,"x_max":0,"o":"m 428 -14 b 758 314 629 -14 758 115 b 454 633 758 504 639 633 b 221 542 350 633 274 589 l 217 542 b 454 872 225 749 274 872 b 624 731 544 872 611 843 l 744 731 b 451 992 744 818 690 992 b 88 474 157 992 88 728 b 428 -14 88 213 161 -14 z m 213 396 b 446 508 264 467 358 508 b 622 318 576 508 622 415 b 426 114 622 240 593 114 b 213 396 296 114 218 192 z "},"7":{"ha":821,"x_min":0,"x_max":0,"o":"m 251 0 l 394 0 b 739 875 415 236 546 614 l 739 978 l 82 978 l 82 867 l 608 867 l 608 863 b 251 0 411 597 304 306 z "},"8":{"ha":847,"x_min":0,"x_max":0,"o":"m 424 -14 b 765 269 633 -14 765 103 b 593 510 765 385 703 468 l 593 515 b 732 731 685 556 732 631 b 425 990 732 876 626 990 b 114 731 228 990 114 882 b 257 515 114 631 163 554 l 257 510 b 83 271 144 469 83 385 b 424 -14 83 101 217 -14 z m 219 283 b 425 453 219 388 301 453 b 629 285 553 453 629 383 b 425 114 629 185 553 114 b 219 283 297 114 219 185 z m 239 715 b 425 879 239 810 306 879 b 608 715 543 879 608 810 b 425 569 608 619 540 569 b 239 715 307 569 239 619 z "},"9":{"ha":843,"x_min":0,"x_max":0,"o":"m 394 -14 b 758 504 689 -14 758 250 b 418 992 758 765 685 992 b 88 664 217 992 88 863 b 392 344 88 474 207 344 b 625 436 496 344 572 389 l 629 436 b 392 106 621 229 572 106 b 222 247 301 106 235 135 l 101 247 b 394 -14 101 160 156 -14 z m 224 660 b 419 864 224 738 253 864 b 633 582 550 864 628 786 b 400 469 582 511 488 469 b 224 660 269 469 224 563 z "}," ":{"ha":354,"x_min":0,"x_max":0,"o":""},"!":{"ha":831,"x_min":0,"x_max":0,"o":"m 140 274 l 140 274 b 183 204 176 274 183 249 b 140 135 183 161 176 135 b 128 136 136 135 131 135 l 128 272 b 140 274 132 274 136 274 z m 351 224 l 296 224 l 296 271 l 361 271 l 361 306 l 256 306 l 256 104 l 361 104 l 361 138 l 296 138 l 296 190 l 351 190 z m 138 101 l 138 101 b 224 204 200 101 224 133 b 139 308 224 274 201 308 b 88 303 125 308 106 306 l 88 104 b 138 101 106 101 126 101 z m 397 306 l 397 306 b 388 104 393 257 389 169 l 426 104 b 429 249 426 151 428 201 l 431 249 l 458 135 l 496 135 l 524 249 b 528 104 526 201 528 151 l 568 104 b 560 306 565 169 563 257 l 504 306 l 478 194 l 451 306 z m 669 101 l 669 101 b 744 204 725 101 744 133 b 669 308 744 275 725 308 b 596 204 614 308 596 275 b 669 101 596 133 614 101 z m 669 274 b 704 204 699 274 704 250 b 669 135 704 160 699 135 b 636 204 642 135 636 160 b 669 274 636 250 642 274 z m 656 689 l 656 689 b 439 429 540 689 439 429 b 669 529 497 486 569 518 b 742 601 699 533 742 558 b 656 689 742 631 728 689 z m 193 617 l 193 617 b 107 529 136 617 107 574 b 193 457 107 486 150 457 b 410 357 281 457 353 429 b 193 617 410 357 324 617 z m 436 824 l 436 824 b 313 822 394 864 343 853 b 325 710 283 790 294 740 b 410 486 388 650 419 578 b 436 824 410 486 529 733 z "},"\"":{"ha":831,"x_min":0,"x_max":0,"o":"m 140 274 l 140 274 b 183 204 176 274 183 249 b 140 135 183 161 176 135 b 128 136 136 135 131 135 l 128 272 b 140 274 132 274 136 274 z m 351 224 l 296 224 l 296 271 l 361 271 l 361 306 l 256 306 l 256 104 l 361 104 l 361 138 l 296 138 l 296 190 l 351 190 z m 138 101 l 138 101 b 224 204 200 101 224 133 b 139 308 224 274 201 308 b 88 303 125 308 106 306 l 88 104 b 138 101 106 101 126 101 z m 397 306 l 397 306 b 388 104 393 257 389 169 l 426 104 b 429 249 426 151 428 201 l 431 249 l 458 135 l 496 135 l 524 249 b 528 104 526 201 528 151 l 568 104 b 560 306 565 169 563 257 l 504 306 l 478 194 l 451 306 z m 669 101 l 669 101 b 744 204 725 101 744 133 b 669 308 744 275 725 308 b 596 204 614 308 596 275 b 669 101 596 133 614 101 z m 669 274 b 704 204 699 274 704 250 b 669 135 704 160 699 135 b 636 204 642 135 636 160 b 669 274 636 250 642 274 z m 656 689 l 656 689 b 439 429 540 689 439 429 b 669 529 497 486 569 518 b 742 601 699 533 742 558 b 656 689 742 631 728 689 z m 193 617 l 193 617 b 107 529 136 617 107 574 b 193 457 107 486 150 457 b 410 357 281 457 353 429 b 193 617 410 357 324 617 z m 436 824 l 436 824 b 313 822 394 864 343 853 b 325 710 283 790 294 740 b 410 486 388 650 419 578 b 436 824 410 486 529 733 z "},"#":{"ha":831,"x_min":0,"x_max":0,"o":"m 140 274 l 140 274 b 183 204 176 274 183 249 b 140 135 183 161 176 135 b 128 136 136 135 131 135 l 128 272 b 140 274 132 274 136 274 z m 351 224 l 296 224 l 296 271 l 361 271 l 361 306 l 256 306 l 256 104 l 361 104 l 361 138 l 296 138 l 296 190 l 351 190 z m 138 101 l 138 101 b 224 204 200 101 224 133 b 139 308 224 274 201 308 b 88 303 125 308 106 306 l 88 104 b 138 101 106 101 126 101 z m 397 306 l 397 306 b 388 104 393 257 389 169 l 426 104 b 429 249 426 151 428 201 l 431 249 l 458 135 l 496 135 l 524 249 b 528 104 526 201 528 151 l 568 104 b 560 306 565 169 563 257 l 504 306 l 478 194 l 451 306 z m 669 101 l 669 101 b 744 204 725 101 744 133 b 669 308 744 275 725 308 b 596 204 614 308 596 275 b 669 101 596 133 614 101 z m 669 274 b 704 204 699 274 704 250 b 669 135 704 160 699 135 b 636 204 642 135 636 160 b 669 274 636 250 642 274 z m 656 689 l 656 689 b 439 429 540 689 439 429 b 669 529 497 486 569 518 b 742 601 699 533 742 558 b 656 689 742 631 728 689 z m 193 617 l 193 617 b 107 529 136 617 107 574 b 193 457 107 486 150 457 b 410 357 281 457 353 429 b 193 617 410 357 324 617 z m 436 824 l 436 824 b 313 822 394 864 343 853 b 325 710 283 790 294 740 b 410 486 388 650 419 578 b 436 824 410 486 529 733 z "},"$":{"ha":831,"x_min":0,"x_max":0,"o":"m 140 274 l 140 274 b 183 204 176 274 183 249 b 140 135 183 161 176 135 b 128 136 136 135 131 135 l 128 272 b 140 274 132 274 136 274 z m 351 224 l 296 224 l 296 271 l 361 271 l 361 306 l 256 306 l 256 104 l 361 104 l 361 138 l 296 138 l 296 190 l 351 190 z m 138 101 l 138 101 b 224 204 200 101 224 133 b 139 308 224 274 201 308 b 88 303 125 308 106 306 l 88 104 b 138 101 106 101 126 101 z m 397 306 l 397 306 b 388 104 393 257 389 169 l 426 104 b 429 249 426 151 428 201 l 431 249 l 458 135 l 496 135 l 524 249 b 528 104 526 201 528 151 l 568 104 b 560 306 565 169 563 257 l 504 306 l 478 194 l 451 306 z m 669 101 l 669 101 b 744 204 725 101 744 133 b 669 308 744 275 725 308 b 596 204 614 308 596 275 b 669 101 596 133 614 101 z m 669 274 b 704 204 699 274 704 250 b 669 135 704 160 699 135 b 636 204 642 135 636 160 b 669 274 636 250 642 274 z m 656 689 l 656 689 b 439 429 540 689 439 429 b 669 529 497 486 569 518 b 742 601 699 533 742 558 b 656 689 742 631 728 689 z m 193 617 l 193 617 b 107 529 136 617 107 574 b 193 457 107 486 150 457 b 410 357 281 457 353 429 b 193 617 410 357 324 617 z m 436 824 l 436 824 b 313 822 394 864 343 853 b 325 710 283 790 294 740 b 410 486 388 650 419 578 b 436 824 410 486 529 733 z "},"%":{"ha":831,"x_min":0,"x_max":0,"o":"m 140 274 l 140 274 b 183 204 176 274 183 249 b 140 135 183 161 176 135 b 128 136 136 135 131 135 l 128 272 b 140 274 132 274 136 274 z m 351 224 l 296 224 l 296 271 l 361 271 l 361 306 l 256 306 l 256 104 l 361 104 l 361 138 l 296 138 l 296 190 l 351 190 z m 138 101 l 138 101 b 224 204 200 101 224 133 b 139 308 224 274 201 308 b 88 303 125 308 106 306 l 88 104 b 138 101 106 101 126 101 z m 397 306 l 397 306 b 388 104 393 257 389 169 l 426 104 b 429 249 426 151 428 201 l 431 249 l 458 135 l 496 135 l 524 249 b 528 104 526 201 528 151 l 568 104 b 560 306 565 169 563 257 l 504 306 l 478 194 l 451 306 z m 669 101 l 669 101 b 744 204 725 101 744 133 b 669 308 744 275 725 308 b 596 204 614 308 596 275 b 669 101 596 133 614 101 z m 669 274 b 704 204 699 274 704 250 b 669 135 704 160 699 135 b 636 204 642 135 636 160 b 669 274 636 250 642 274 z m 656 689 l 656 689 b 439 429 540 689 439 429 b 669 529 497 486 569 518 b 742 601 699 533 742 558 b 656 689 742 631 728 689 z m 193 617 l 193 617 b 107 529 136 617 107 574 b 193 457 107 486 150 457 b 410 357 281 457 353 429 b 193 617 410 357 324 617 z m 436 824 l 436 824 b 313 822 394 864 343 853 b 325 710 283 790 294 740 b 410 486 388 650 419 578 b 436 824 410 486 529 733 z "},"&":{"ha":831,"x_min":0,"x_max":0,"o":"m 140 274 l 140 274 b 183 204 176 274 183 249 b 140 135 183 161 176 135 b 128 136 136 135 131 135 l 128 272 b 140 274 132 274 136 274 z m 351 224 l 296 224 l 296 271 l 361 271 l 361 306 l 256 306 l 256 104 l 361 104 l 361 138 l 296 138 l 296 190 l 351 190 z m 138 101 l 138 101 b 224 204 200 101 224 133 b 139 308 224 274 201 308 b 88 303 125 308 106 306 l 88 104 b 138 101 106 101 126 101 z m 397 306 l 397 306 b 388 104 393 257 389 169 l 426 104 b 429 249 426 151 428 201 l 431 249 l 458 135 l 496 135 l 524 249 b 528 104 526 201 528 151 l 568 104 b 560 306 565 169 563 257 l 504 306 l 478 194 l 451 306 z m 669 101 l 669 101 b 744 204 725 101 744 133 b 669 308 744 275 725 308 b 596 204 614 308 596 275 b 669 101 596 133 614 101 z m 669 274 b 704 204 699 274 704 250 b 669 135 704 160 699 135 b 636 204 642 135 636 160 b 669 274 636 250 642 274 z m 656 689 l 656 689 b 439 429 540 689 439 429 b 669 529 497 486 569 518 b 742 601 699 533 742 558 b 656 689 742 631 728 689 z m 193 617 l 193 617 b 107 529 136 617 107 574 b 193 457 107 486 150 457 b 410 357 281 457 353 429 b 193 617 410 357 324 617 z m 436 824 l 436 824 b 313 822 394 864 343 853 b 325 710 283 790 294 740 b 410 486 388 650 419 578 b 436 824 410 486 529 733 z "},"'":{"ha":831,"x_min":0,"x_max":0,"o":"m 140 274 l 140 274 b 183 204 176 274 183 249 b 140 135 183 161 176 135 b 128 136 136 135 131 135 l 128 272 b 140 274 132 274 136 274 z m 351 224 l 296 224 l 296 271 l 361 271 l 361 306 l 256 306 l 256 104 l 361 104 l 361 138 l 296 138 l 296 190 l 351 190 z m 138 101 l 138 101 b 224 204 200 101 224 133 b 139 308 224 274 201 308 b 88 303 125 308 106 306 l 88 104 b 138 101 106 101 126 101 z m 397 306 l 397 306 b 388 104 393 257 389 169 l 426 104 b 429 249 426 151 428 201 l 431 249 l 458 135 l 496 135 l 524 249 b 528 104 526 201 528 151 l 568 104 b 560 306 565 169 563 257 l 504 306 l 478 194 l 451 306 z m 669 101 l 669 101 b 744 204 725 101 744 133 b 669 308 744 275 725 308 b 596 204 614 308 596 275 b 669 101 596 133 614 101 z m 669 274 b 704 204 699 274 704 250 b 669 135 704 160 699 135 b 636 204 642 135 636 160 b 669 274 636 250 642 274 z m 656 689 l 656 689 b 439 429 540 689 439 429 b 669 529 497 486 569 518 b 742 601 699 533 742 558 b 656 689 742 631 728 689 z m 193 617 l 193 617 b 107 529 136 617 107 574 b 193 457 107 486 150 457 b 410 357 281 457 353 429 b 193 617 410 357 324 617 z m 436 824 l 436 824 b 313 822 394 864 343 853 b 325 710 283 790 294 740 b 410 486 388 650 419 578 b 436 824 410 486 529 733 z "},"(":{"ha":831,"x_min":0,"x_max":0,"o":"m 140 274 l 140 274 b 183 204 176 274 183 249 b 140 135 183 161 176 135 b 128 136 136 135 131 135 l 128 272 b 140 274 132 274 136 274 z m 351 224 l 296 224 l 296 271 l 361 271 l 361 306 l 256 306 l 256 104 l 361 104 l 361 138 l 296 138 l 296 190 l 351 190 z m 138 101 l 138 101 b 224 204 200 101 224 133 b 139 308 224 274 201 308 b 88 303 125 308 106 306 l 88 104 b 138 101 106 101 126 101 z m 397 306 l 397 306 b 388 104 393 257 389 169 l 426 104 b 429 249 426 151 428 201 l 431 249 l 458 135 l 496 135 l 524 249 b 528 104 526 201 528 151 l 568 104 b 560 306 565 169 563 257 l 504 306 l 478 194 l 451 306 z m 669 101 l 669 101 b 744 204 725 101 744 133 b 669 308 744 275 725 308 b 596 204 614 308 596 275 b 669 101 596 133 614 101 z m 669 274 b 704 204 699 274 704 250 b 669 135 704 160 699 135 b 636 204 642 135 636 160 b 669 274 636 250 642 274 z m 656 689 l 656 689 b 439 429 540 689 439 429 b 669 529 497 486 569 518 b 742 601 699 533 742 558 b 656 689 742 631 728 689 z m 193 617 l 193 617 b 107 529 136 617 107 574 b 193 457 107 486 150 457 b 410 357 281 457 353 429 b 193 617 410 357 324 617 z m 436 824 l 436 824 b 313 822 394 864 343 853 b 325 710 283 790 294 740 b 410 486 388 650 419 578 b 436 824 410 486 529 733 z "},")":{"ha":831,"x_min":0,"x_max":0,"o":"m 140 274 l 140 274 b 183 204 176 274 183 249 b 140 135 183 161 176 135 b 128 136 136 135 131 135 l 128 272 b 140 274 132 274 136 274 z m 351 224 l 296 224 l 296 271 l 361 271 l 361 306 l 256 306 l 256 104 l 361 104 l 361 138 l 296 138 l 296 190 l 351 190 z m 138 101 l 138 101 b 224 204 200 101 224 133 b 139 308 224 274 201 308 b 88 303 125 308 106 306 l 88 104 b 138 101 106 101 126 101 z m 397 306 l 397 306 b 388 104 393 257 389 169 l 426 104 b 429 249 426 151 428 201 l 431 249 l 458 135 l 496 135 l 524 249 b 528 104 526 201 528 151 l 568 104 b 560 306 565 169 563 257 l 504 306 l 478 194 l 451 306 z m 669 101 l 669 101 b 744 204 725 101 744 133 b 669 308 744 275 725 308 b 596 204 614 308 596 275 b 669 101 596 133 614 101 z m 669 274 b 704 204 699 274 704 250 b 669 135 704 160 699 135 b 636 204 642 135 636 160 b 669 274 636 250 642 274 z m 656 689 l 656 689 b 439 429 540 689 439 429 b 669 529 497 486 569 518 b 742 601 699 533 742 558 b 656 689 742 631 728 689 z m 193 617 l 193 617 b 107 529 136 617 107 574 b 193 457 107 486 150 457 b 410 357 281 457 353 429 b 193 617 410 357 324 617 z m 436 824 l 436 824 b 313 822 394 864 343 853 b 325 710 283 790 294 740 b 410 486 388 650 419 578 b 436 824 410 486 529 733 z "},"*":{"ha":831,"x_min":0,"x_max":0,"o":"m 140 274 l 140 274 b 183 204 176 274 183 249 b 140 135 183 161 176 135 b 128 136 136 135 131 135 l 128 272 b 140 274 132 274 136 274 z m 351 224 l 296 224 l 296 271 l 361 271 l 361 306 l 256 306 l 256 104 l 361 104 l 361 138 l 296 138 l 296 190 l 351 190 z m 138 101 l 138 101 b 224 204 200 101 224 133 b 139 308 224 274 201 308 b 88 303 125 308 106 306 l 88 104 b 138 101 106 101 126 101 z m 397 306 l 397 306 b 388 104 393 257 389 169 l 426 104 b 429 249 426 151 428 201 l 431 249 l 458 135 l 496 135 l 524 249 b 528 104 526 201 528 151 l 568 104 b 560 306 565 169 563 257 l 504 306 l 478 194 l 451 306 z m 669 101 l 669 101 b 744 204 725 101 744 133 b 669 308 744 275 725 308 b 596 204 614 308 596 275 b 669 101 596 133 614 101 z m 669 274 b 704 204 699 274 704 250 b 669 135 704 160 699 135 b 636 204 642 135 636 160 b 669 274 636 250 642 274 z m 656 689 l 656 689 b 439 429 540 689 439 429 b 669 529 497 486 569 518 b 742 601 699 533 742 558 b 656 689 742 631 728 689 z m 193 617 l 193 617 b 107 529 136 617 107 574 b 193 457 107 486 150 457 b 410 357 281 457 353 429 b 193 617 410 357 324 617 z m 436 824 l 436 824 b 313 822 394 864 343 853 b 325 710 283 790 294 740 b 410 486 388 650 419 578 b 436 824 410 486 529 733 z "},"+":{"ha":831,"x_min":0,"x_max":0,"o":"m 140 274 l 140 274 b 183 204 176 274 183 249 b 140 135 183 161 176 135 b 128 136 136 135 131 135 l 128 272 b 140 274 132 274 136 274 z m 351 224 l 296 224 l 296 271 l 361 271 l 361 306 l 256 306 l 256 104 l 361 104 l 361 138 l 296 138 l 296 190 l 351 190 z m 138 101 l 138 101 b 224 204 200 101 224 133 b 139 308 224 274 201 308 b 88 303 125 308 106 306 l 88 104 b 138 101 106 101 126 101 z m 397 306 l 397 306 b 388 104 393 257 389 169 l 426 104 b 429 249 426 151 428 201 l 431 249 l 458 135 l 496 135 l 524 249 b 528 104 526 201 528 151 l 568 104 b 560 306 565 169 563 257 l 504 306 l 478 194 l 451 306 z m 669 101 l 669 101 b 744 204 725 101 744 133 b 669 308 744 275 725 308 b 596 204 614 308 596 275 b 669 101 596 133 614 101 z m 669 274 b 704 204 699 274 704 250 b 669 135 704 160 699 135 b 636 204 642 135 636 160 b 669 274 636 250 642 274 z m 656 689 l 656 689 b 439 429 540 689 439 429 b 669 529 497 486 569 518 b 742 601 699 533 742 558 b 656 689 742 631 728 689 z m 193 617 l 193 617 b 107 529 136 617 107 574 b 193 457 107 486 150 457 b 410 357 281 457 353 429 b 193 617 410 357 324 617 z m 436 824 l 436 824 b 313 822 394 864 343 853 b 325 710 283 790 294 740 b 410 486 388 650 419 578 b 436 824 410 486 529 733 z "},",":{"ha":408,"x_min":0,"x_max":0,"o":"m 118 -126 l 118 -208 b 290 -61 236 -208 290 -169 l 290 176 l 115 176 l 115 0 l 192 0 l 192 -67 b 118 -126 192 -111 174 -126 z "},"-":{"ha":831,"x_min":0,"x_max":0,"o":"m 140 274 l 140 274 b 183 204 176 274 183 249 b 140 135 183 161 176 135 b 128 136 136 135 131 135 l 128 272 b 140 274 132 274 136 274 z m 351 224 l 296 224 l 296 271 l 361 271 l 361 306 l 256 306 l 256 104 l 361 104 l 361 138 l 296 138 l 296 190 l 351 190 z m 138 101 l 138 101 b 224 204 200 101 224 133 b 139 308 224 274 201 308 b 88 303 125 308 106 306 l 88 104 b 138 101 106 101 126 101 z m 397 306 l 397 306 b 388 104 393 257 389 169 l 426 104 b 429 249 426 151 428 201 l 431 249 l 458 135 l 496 135 l 524 249 b 528 104 526 201 528 151 l 568 104 b 560 306 565 169 563 257 l 504 306 l 478 194 l 451 306 z m 669 101 l 669 101 b 744 204 725 101 744 133 b 669 308 744 275 725 308 b 596 204 614 308 596 275 b 669 101 596 133 614 101 z m 669 274 b 704 204 699 274 704 250 b 669 135 704 160 699 135 b 636 204 642 135 636 160 b 669 274 636 250 642 274 z m 656 689 l 656 689 b 439 429 540 689 439 429 b 669 529 497 486 569 518 b 742 601 699 533 742 558 b 656 689 742 631 728 689 z m 193 617 l 193 617 b 107 529 136 617 107 574 b 193 457 107 486 150 457 b 410 357 281 457 353 429 b 193 617 410 357 324 617 z m 436 824 l 436 824 b 313 822 394 864 343 853 b 325 710 283 790 294 740 b 410 486 388 650 419 578 b 436 824 410 486 529 733 z "},".":{"ha":404,"x_min":0,"x_max":0,"o":"m 124 0 l 281 0 l 281 150 l 124 150 z "},"/":{"ha":831,"x_min":0,"x_max":0,"o":"m 140 274 l 140 274 b 183 204 176 274 183 249 b 140 135 183 161 176 135 b 128 136 136 135 131 135 l 128 272 b 140 274 132 274 136 274 z m 351 224 l 296 224 l 296 271 l 361 271 l 361 306 l 256 306 l 256 104 l 361 104 l 361 138 l 296 138 l 296 190 l 351 190 z m 138 101 l 138 101 b 224 204 200 101 224 133 b 139 308 224 274 201 308 b 88 303 125 308 106 306 l 88 104 b 138 101 106 101 126 101 z m 397 306 l 397 306 b 388 104 393 257 389 169 l 426 104 b 429 249 426 151 428 201 l 431 249 l 458 135 l 496 135 l 524 249 b 528 104 526 201 528 151 l 568 104 b 560 306 565 169 563 257 l 504 306 l 478 194 l 451 306 z m 669 101 l 669 101 b 744 204 725 101 744 133 b 669 308 744 275 725 308 b 596 204 614 308 596 275 b 669 101 596 133 614 101 z m 669 274 b 704 204 699 274 704 250 b 669 135 704 160 699 135 b 636 204 642 135 636 160 b 669 274 636 250 642 274 z m 656 689 l 656 689 b 439 429 540 689 439 429 b 669 529 497 486 569 518 b 742 601 699 533 742 558 b 656 689 742 631 728 689 z m 193 617 l 193 617 b 107 529 136 617 107 574 b 193 457 107 486 150 457 b 410 357 281 457 353 429 b 193 617 410 357 324 617 z m 436 824 l 436 824 b 313 822 394 864 343 853 b 325 710 283 790 294 740 b 410 486 388 650 419 578 b 436 824 410 486 529 733 z "},":":{"ha":404,"x_min":0,"x_max":0,"o":"m 124 472 l 281 472 l 281 622 l 124 622 z m 124 57 l 281 57 l 281 207 l 124 207 z "},";":{"ha":415,"x_min":0,"x_max":0,"o":"m 122 -126 l 122 -208 b 294 -61 240 -208 294 -169 l 294 176 l 119 176 l 119 0 l 196 0 l 196 -67 b 122 -126 196 -111 178 -126 z m 119 472 l 294 472 l 294 622 l 119 622 z "},"<":{"ha":831,"x_min":0,"x_max":0,"o":"m 140 274 l 140 274 b 183 204 176 274 183 249 b 140 135 183 161 176 135 b 128 136 136 135 131 135 l 128 272 b 140 274 132 274 136 274 z m 351 224 l 296 224 l 296 271 l 361 271 l 361 306 l 256 306 l 256 104 l 361 104 l 361 138 l 296 138 l 296 190 l 351 190 z m 138 101 l 138 101 b 224 204 200 101 224 133 b 139 308 224 274 201 308 b 88 303 125 308 106 306 l 88 104 b 138 101 106 101 126 101 z m 397 306 l 397 306 b 388 104 393 257 389 169 l 426 104 b 429 249 426 151 428 201 l 431 249 l 458 135 l 496 135 l 524 249 b 528 104 526 201 528 151 l 568 104 b 560 306 565 169 563 257 l 504 306 l 478 194 l 451 306 z m 669 101 l 669 101 b 744 204 725 101 744 133 b 669 308 744 275 725 308 b 596 204 614 308 596 275 b 669 101 596 133 614 101 z m 669 274 b 704 204 699 274 704 250 b 669 135 704 160 699 135 b 636 204 642 135 636 160 b 669 274 636 250 642 274 z m 656 689 l 656 689 b 439 429 540 689 439 429 b 669 529 497 486 569 518 b 742 601 699 533 742 558 b 656 689 742 631 728 689 z m 193 617 l 193 617 b 107 529 136 617 107 574 b 193 457 107 486 150 457 b 410 357 281 457 353 429 b 193 617 410 357 324 617 z m 436 824 l 436 824 b 313 822 394 864 343 853 b 325 710 283 790 294 740 b 410 486 388 650 419 578 b 436 824 410 486 529 733 z "},"=":{"ha":831,"x_min":0,"x_max":0,"o":"m 140 274 l 140 274 b 183 204 176 274 183 249 b 140 135 183 161 176 135 b 128 136 136 135 131 135 l 128 272 b 140 274 132 274 136 274 z m 351 224 l 296 224 l 296 271 l 361 271 l 361 306 l 256 306 l 256 104 l 361 104 l 361 138 l 296 138 l 296 190 l 351 190 z m 138 101 l 138 101 b 224 204 200 101 224 133 b 139 308 224 274 201 308 b 88 303 125 308 106 306 l 88 104 b 138 101 106 101 126 101 z m 397 306 l 397 306 b 388 104 393 257 389 169 l 426 104 b 429 249 426 151 428 201 l 431 249 l 458 135 l 496 135 l 524 249 b 528 104 526 201 528 151 l 568 104 b 560 306 565 169 563 257 l 504 306 l 478 194 l 451 306 z m 669 101 l 669 101 b 744 204 725 101 744 133 b 669 308 744 275 725 308 b 596 204 614 308 596 275 b 669 101 596 133 614 101 z m 669 274 b 704 204 699 274 704 250 b 669 135 704 160 699 135 b 636 204 642 135 636 160 b 669 274 636 250 642 274 z m 656 689 l 656 689 b 439 429 540 689 439 429 b 669 529 497 486 569 518 b 742 601 699 533 742 558 b 656 689 742 631 728 689 z m 193 617 l 193 617 b 107 529 136 617 107 574 b 193 457 107 486 150 457 b 410 357 281 457 353 429 b 193 617 410 357 324 617 z m 436 824 l 436 824 b 313 822 394 864 343 853 b 325 710 283 790 294 740 b 410 486 388 650 419 578 b 436 824 410 486 529 733 z "},">":{"ha":831,"x_min":0,"x_max":0,"o":"m 140 274 l 140 274 b 183 204 176 274 183 249 b 140 135 183 161 176 135 b 128 136 136 135 131 135 l 128 272 b 140 274 132 274 136 274 z m 351 224 l 296 224 l 296 271 l 361 271 l 361 306 l 256 306 l 256 104 l 361 104 l 361 138 l 296 138 l 296 190 l 351 190 z m 138 101 l 138 101 b 224 204 200 101 224 133 b 139 308 224 274 201 308 b 88 303 125 308 106 306 l 88 104 b 138 101 106 101 126 101 z m 397 306 l 397 306 b 388 104 393 257 389 169 l 426 104 b 429 249 426 151 428 201 l 431 249 l 458 135 l 496 135 l 524 249 b 528 104 526 201 528 151 l 568 104 b 560 306 565 169 563 257 l 504 306 l 478 194 l 451 306 z m 669 101 l 669 101 b 744 204 725 101 744 133 b 669 308 744 275 725 308 b 596 204 614 308 596 275 b 669 101 596 133 614 101 z m 669 274 b 704 204 699 274 704 250 b 669 135 704 160 699 135 b 636 204 642 135 636 160 b 669 274 636 250 642 274 z m 656 689 l 656 689 b 439 429 540 689 439 429 b 669 529 497 486 569 518 b 742 601 699 533 742 558 b 656 689 742 631 728 689 z m 193 617 l 193 617 b 107 529 136 617 107 574 b 193 457 107 486 150 457 b 410 357 281 457 353 429 b 193 617 410 357 324 617 z m 436 824 l 436 824 b 313 822 394 864 343 853 b 325 710 283 790 294 740 b 410 486 388 650 419 578 b 436 824 410 486 529 733 z "},"?":{"ha":849,"x_min":0,"x_max":0,"o":"m 349 265 l 465 265 b 613 526 461 406 536 465 b 749 746 681 581 749 631 b 443 992 749 836 707 992 b 99 654 122 992 99 756 l 233 654 b 447 867 233 760 265 867 b 613 744 538 867 613 840 b 347 300 613 565 347 579 b 349 265 347 288 347 275 z m 343 0 l 471 0 l 471 150 l 343 150 z "},"@":{"ha":831,"x_min":0,"x_max":0,"o":"m 140 274 l 140 274 b 183 204 176 274 183 249 b 140 135 183 161 176 135 b 128 136 136 135 131 135 l 128 272 b 140 274 132 274 136 274 z m 351 224 l 296 224 l 296 271 l 361 271 l 361 306 l 256 306 l 256 104 l 361 104 l 361 138 l 296 138 l 296 190 l 351 190 z m 138 101 l 138 101 b 224 204 200 101 224 133 b 139 308 224 274 201 308 b 88 303 125 308 106 306 l 88 104 b 138 101 106 101 126 101 z m 397 306 l 397 306 b 388 104 393 257 389 169 l 426 104 b 429 249 426 151 428 201 l 431 249 l 458 135 l 496 135 l 524 249 b 528 104 526 201 528 151 l 568 104 b 560 306 565 169 563 257 l 504 306 l 478 194 l 451 306 z m 669 101 l 669 101 b 744 204 725 101 744 133 b 669 308 744 275 725 308 b 596 204 614 308 596 275 b 669 101 596 133 614 101 z m 669 274 b 704 204 699 274 704 250 b 669 135 704 160 699 135 b 636 204 642 135 636 160 b 669 274 636 250 642 274 z m 656 689 l 656 689 b 439 429 540 689 439 429 b 669 529 497 486 569 518 b 742 601 699 533 742 558 b 656 689 742 631 728 689 z m 193 617 l 193 617 b 107 529 136 617 107 574 b 193 457 107 486 150 457 b 410 357 281 457 353 429 b 193 617 410 357 324 617 z m 436 824 l 436 824 b 313 822 394 864 343 853 b 325 710 283 790 294 740 b 410 486 388 650 419 578 b 436 824 410 486 529 733 z "},"A":{"ha":1010,"x_min":0,"x_max":0,"o":"m 42 0 l 186 0 l 292 286 l 719 286 l 825 0 l 968 0 l 589 983 l 421 983 z m 332 397 l 504 869 l 507 869 l 679 397 z "},"B":{"ha":896,"x_min":0,"x_max":0,"o":"m 110 0 l 443 0 b 808 276 632 0 808 74 b 636 517 808 417 724 485 l 636 521 b 772 739 740 569 772 661 b 432 978 772 908 621 978 l 110 978 z m 242 107 l 242 471 l 418 471 b 689 288 467 471 689 471 b 460 107 689 174 604 107 z m 242 572 l 242 871 l 388 871 b 646 717 474 871 646 876 b 396 572 646 560 479 572 z "},"C":{"ha":956,"x_min":0,"x_max":0,"o":"m 497 -14 b 896 356 786 -14 896 160 l 760 356 b 500 101 760 203 681 101 b 197 492 247 101 197 306 b 497 881 197 678 251 881 b 760 639 671 881 760 779 l 896 639 b 496 992 896 822 792 992 b 63 492 146 992 63 731 b 497 -14 63 251 143 -14 z "},"D":{"ha":1007,"x_min":0,"x_max":0,"o":"m 110 0 l 436 0 b 944 493 540 0 944 6 b 443 978 944 965 565 978 l 110 978 z m 242 131 l 242 847 l 429 847 b 800 493 613 847 800 804 b 435 131 800 175 604 131 z "},"E":{"ha":844,"x_min":0,"x_max":0,"o":"m 110 0 l 754 0 l 754 125 l 242 125 l 242 440 l 710 440 l 710 565 l 242 565 l 242 853 l 754 853 l 754 978 l 110 978 z "},"F":{"ha":840,"x_min":0,"x_max":0,"o":"m 110 0 l 242 0 l 242 440 l 710 440 l 710 565 l 242 565 l 242 853 l 754 853 l 754 978 l 110 978 z "},"G":{"ha":1001,"x_min":0,"x_max":0,"o":"m 493 -14 b 794 114 640 -14 735 36 l 799 114 l 799 1 l 911 1 l 911 529 l 533 529 l 533 407 l 796 407 l 796 404 b 510 108 786 228 714 108 b 197 489 303 108 197 231 b 497 881 197 675 251 881 b 760 681 669 881 753 779 l 896 681 b 496 992 889 822 778 992 b 63 489 149 992 63 731 b 493 -14 63 164 217 -14 z "},"H":{"ha":1003,"x_min":0,"x_max":0,"o":"m 761 0 l 893 0 l 893 978 l 761 978 l 761 551 l 242 551 l 242 978 l 110 978 l 110 0 l 242 0 l 242 426 l 761 426 z "},"I":{"ha":351,"x_min":0,"x_max":0,"o":"m 110 0 l 242 0 l 242 978 l 110 978 z "},"J":{"ha":761,"x_min":0,"x_max":0,"o":"m 365 -14 b 671 328 521 -14 671 63 l 671 978 l 539 978 l 539 343 b 364 111 539 269 539 111 b 186 371 243 111 186 186 l 58 371 b 365 -14 58 122 157 -14 z "},"K":{"ha":864,"x_min":0,"x_max":0,"o":"m 110 0 l 242 0 l 242 353 l 338 458 l 658 0 l 829 0 l 426 556 l 815 978 l 644 978 l 242 531 l 242 978 l 110 978 z "},"L":{"ha":817,"x_min":0,"x_max":0,"o":"m 110 0 l 754 0 l 754 125 l 242 125 l 242 978 l 110 978 z "},"M":{"ha":1239,"x_min":0,"x_max":0,"o":"m 540 -7 l 697 -7 l 993 769 l 997 769 l 997 0 l 1129 0 l 1129 978 l 939 978 l 622 146 l 617 146 l 300 978 l 110 978 l 110 0 l 242 0 l 242 769 l 246 769 z "},"N":{"ha":1039,"x_min":0,"x_max":0,"o":"m 749 -8 l 929 -8 l 929 978 l 799 978 l 799 161 l 794 161 l 292 978 l 110 978 l 110 0 l 242 0 l 242 808 l 246 808 z "},"O":{"ha":1054,"x_min":0,"x_max":0,"o":"m 526 -14 b 992 492 824 -14 992 199 b 526 992 992 785 824 992 b 63 492 231 992 63 785 b 526 -14 63 199 231 -14 z m 201 492 b 526 867 201 717 319 867 b 851 492 733 867 851 717 b 526 114 851 267 733 114 b 201 492 319 114 201 267 z "},"P":{"ha":875,"x_min":0,"x_max":0,"o":"m 110 0 l 242 0 l 242 393 l 469 393 b 813 678 618 393 813 429 b 438 978 813 972 544 978 l 110 978 z m 242 518 l 242 853 l 422 853 b 675 676 510 853 675 853 b 457 518 675 518 543 518 z "},"Q":{"ha":1054,"x_min":0,"x_max":0,"o":"m 526 -14 b 764 43 618 -14 697 7 l 883 -87 l 967 -11 l 854 111 b 992 492 944 201 992 335 b 526 992 992 785 824 992 b 63 492 231 992 63 785 b 526 -14 63 199 231 -14 z m 201 490 b 528 867 201 717 319 867 b 853 476 733 867 853 721 b 771 203 853 356 825 264 l 626 360 l 543 285 l 678 138 b 542 114 639 122 593 114 b 201 490 317 114 201 267 z "},"R":{"ha":903,"x_min":0,"x_max":0,"o":"m 722 0 l 868 0 b 765 274 819 88 806 154 b 633 464 731 378 704 432 l 633 468 b 797 718 729 499 797 592 b 468 978 797 946 576 978 l 110 978 l 110 0 l 242 0 l 242 417 l 424 417 b 621 282 494 417 572 417 b 722 0 643 219 661 128 z m 242 542 l 242 853 l 438 853 b 658 701 510 853 658 853 b 435 542 658 607 601 542 z "},"S":{"ha":896,"x_min":0,"x_max":0,"o":"m 463 -14 b 822 268 725 -14 822 118 b 479 569 822 490 611 538 b 225 735 382 593 225 611 b 432 881 225 821 303 881 b 661 686 596 881 661 783 l 797 686 b 435 992 797 854 675 992 b 94 722 226 992 94 888 b 374 458 94 554 229 494 b 690 261 528 419 690 410 b 465 100 690 150 600 100 b 204 329 278 100 204 197 l 74 329 b 463 -14 74 186 142 -14 z "},"T":{"ha":929,"x_min":0,"x_max":0,"o":"m 400 0 l 532 0 l 532 860 l 867 860 l 867 978 l 63 978 l 63 860 l 400 860 z "},"U":{"ha":942,"x_min":0,"x_max":0,"o":"m 471 -14 b 839 356 707 -14 839 113 l 839 978 l 707 978 l 707 356 b 472 114 707 185 625 114 b 235 356 318 114 235 185 l 235 978 l 103 978 l 103 356 b 471 -14 103 106 242 -14 z "},"V":{"ha":969,"x_min":0,"x_max":0,"o":"m 396 -7 l 574 -7 l 935 978 l 790 978 l 488 129 l 482 129 l 178 978 l 35 978 z "},"W":{"ha":1331,"x_min":0,"x_max":0,"o":"m 279 -7 l 454 -7 l 663 824 l 668 824 l 876 -7 l 1051 -7 l 1296 978 l 1160 978 l 964 164 l 958 164 l 749 978 l 581 978 l 372 164 l 367 164 l 172 978 l 35 978 z "},"X":{"ha":938,"x_min":0,"x_max":0,"o":"m 35 0 l 193 0 l 468 401 l 471 401 l 744 0 l 903 0 l 558 494 l 896 978 l 738 978 l 469 579 l 467 579 l 199 978 l 40 978 l 379 494 z "},"Y":{"ha":914,"x_min":0,"x_max":0,"o":"m 392 0 l 524 0 l 524 406 l 879 978 l 733 978 l 460 518 l 454 518 l 181 978 l 35 978 l 392 401 z "},"Z":{"ha":876,"x_min":0,"x_max":0,"o":"m 63 0 l 806 0 l 806 118 l 236 118 l 236 124 l 814 864 l 814 978 l 90 978 l 90 860 l 647 860 l 647 854 l 63 114 z "},"[":{"ha":831,"x_min":0,"x_max":0,"o":"m 140 274 l 140 274 b 183 204 176 274 183 249 b 140 135 183 161 176 135 b 128 136 136 135 131 135 l 128 272 b 140 274 132 274 136 274 z m 351 224 l 296 224 l 296 271 l 361 271 l 361 306 l 256 306 l 256 104 l 361 104 l 361 138 l 296 138 l 296 190 l 351 190 z m 138 101 l 138 101 b 224 204 200 101 224 133 b 139 308 224 274 201 308 b 88 303 125 308 106 306 l 88 104 b 138 101 106 101 126 101 z m 397 306 l 397 306 b 388 104 393 257 389 169 l 426 104 b 429 249 426 151 428 201 l 431 249 l 458 135 l 496 135 l 524 249 b 528 104 526 201 528 151 l 568 104 b 560 306 565 169 563 257 l 504 306 l 478 194 l 451 306 z m 669 101 l 669 101 b 744 204 725 101 744 133 b 669 308 744 275 725 308 b 596 204 614 308 596 275 b 669 101 596 133 614 101 z m 669 274 b 704 204 699 274 704 250 b 669 135 704 160 699 135 b 636 204 642 135 636 160 b 669 274 636 250 642 274 z m 656 689 l 656 689 b 439 429 540 689 439 429 b 669 529 497 486 569 518 b 742 601 699 533 742 558 b 656 689 742 631 728 689 z m 193 617 l 193 617 b 107 529 136 617 107 574 b 193 457 107 486 150 457 b 410 357 281 457 353 429 b 193 617 410 357 324 617 z m 436 824 l 436 824 b 313 822 394 864 343 853 b 325 710 283 790 294 740 b 410 486 388 650 419 578 b 436 824 410 486 529 733 z "},"\\":{"ha":831,"x_min":0,"x_max":0,"o":"m 140 274 l 140 274 b 183 204 176 274 183 249 b 140 135 183 161 176 135 b 128 136 136 135 131 135 l 128 272 b 140 274 132 274 136 274 z m 351 224 l 296 224 l 296 271 l 361 271 l 361 306 l 256 306 l 256 104 l 361 104 l 361 138 l 296 138 l 296 190 l 351 190 z m 138 101 l 138 101 b 224 204 200 101 224 133 b 139 308 224 274 201 308 b 88 303 125 308 106 306 l 88 104 b 138 101 106 101 126 101 z m 397 306 l 397 306 b 388 104 393 257 389 169 l 426 104 b 429 249 426 151 428 201 l 431 249 l 458 135 l 496 135 l 524 249 b 528 104 526 201 528 151 l 568 104 b 560 306 565 169 563 257 l 504 306 l 478 194 l 451 306 z m 669 101 l 669 101 b 744 204 725 101 744 133 b 669 308 744 275 725 308 b 596 204 614 308 596 275 b 669 101 596 133 614 101 z m 669 274 b 704 204 699 274 704 250 b 669 135 704 160 699 135 b 636 204 642 135 636 160 b 669 274 636 250 642 274 z m 656 689 l 656 689 b 439 429 540 689 439 429 b 669 529 497 486 569 518 b 742 601 699 533 742 558 b 656 689 742 631 728 689 z m 193 617 l 193 617 b 107 529 136 617 107 574 b 193 457 107 486 150 457 b 410 357 281 457 353 429 b 193 617 410 357 324 617 z m 436 824 l 436 824 b 313 822 394 864 343 853 b 325 710 283 790 294 740 b 410 486 388 650 419 578 b 436 824 410 486 529 733 z "},"]":{"ha":831,"x_min":0,"x_max":0,"o":"m 140 274 l 140 274 b 183 204 176 274 183 249 b 140 135 183 161 176 135 b 128 136 136 135 131 135 l 128 272 b 140 274 132 274 136 274 z m 351 224 l 296 224 l 296 271 l 361 271 l 361 306 l 256 306 l 256 104 l 361 104 l 361 138 l 296 138 l 296 190 l 351 190 z m 138 101 l 138 101 b 224 204 200 101 224 133 b 139 308 224 274 201 308 b 88 303 125 308 106 306 l 88 104 b 138 101 106 101 126 101 z m 397 306 l 397 306 b 388 104 393 257 389 169 l 426 104 b 429 249 426 151 428 201 l 431 249 l 458 135 l 496 135 l 524 249 b 528 104 526 201 528 151 l 568 104 b 560 306 565 169 563 257 l 504 306 l 478 194 l 451 306 z m 669 101 l 669 101 b 744 204 725 101 744 133 b 669 308 744 275 725 308 b 596 204 614 308 596 275 b 669 101 596 133 614 101 z m 669 274 b 704 204 699 274 704 250 b 669 135 704 160 699 135 b 636 204 642 135 636 160 b 669 274 636 250 642 274 z m 656 689 l 656 689 b 439 429 540 689 439 429 b 669 529 497 486 569 518 b 742 601 699 533 742 558 b 656 689 742 631 728 689 z m 193 617 l 193 617 b 107 529 136 617 107 574 b 193 457 107 486 150 457 b 410 357 281 457 353 429 b 193 617 410 357 324 617 z m 436 824 l 436 824 b 313 822 394 864 343 853 b 325 710 283 790 294 740 b 410 486 388 650 419 578 b 436 824 410 486 529 733 z "},"^":{"ha":831,"x_min":0,"x_max":0,"o":"m 140 274 l 140 274 b 183 204 176 274 183 249 b 140 135 183 161 176 135 b 128 136 136 135 131 135 l 128 272 b 140 274 132 274 136 274 z m 351 224 l 296 224 l 296 271 l 361 271 l 361 306 l 256 306 l 256 104 l 361 104 l 361 138 l 296 138 l 296 190 l 351 190 z m 138 101 l 138 101 b 224 204 200 101 224 133 b 139 308 224 274 201 308 b 88 303 125 308 106 306 l 88 104 b 138 101 106 101 126 101 z m 397 306 l 397 306 b 388 104 393 257 389 169 l 426 104 b 429 249 426 151 428 201 l 431 249 l 458 135 l 496 135 l 524 249 b 528 104 526 201 528 151 l 568 104 b 560 306 565 169 563 257 l 504 306 l 478 194 l 451 306 z m 669 101 l 669 101 b 744 204 725 101 744 133 b 669 308 744 275 725 308 b 596 204 614 308 596 275 b 669 101 596 133 614 101 z m 669 274 b 704 204 699 274 704 250 b 669 135 704 160 699 135 b 636 204 642 135 636 160 b 669 274 636 250 642 274 z m 656 689 l 656 689 b 439 429 540 689 439 429 b 669 529 497 486 569 518 b 742 601 699 533 742 558 b 656 689 742 631 728 689 z m 193 617 l 193 617 b 107 529 136 617 107 574 b 193 457 107 486 150 457 b 410 357 281 457 353 429 b 193 617 410 357 324 617 z m 436 824 l 436 824 b 313 822 394 864 343 853 b 325 710 283 790 294 740 b 410 486 388 650 419 578 b 436 824 410 486 529 733 z "},"_":{"ha":831,"x_min":0,"x_max":0,"o":"m 140 274 l 140 274 b 183 204 176 274 183 249 b 140 135 183 161 176 135 b 128 136 136 135 131 135 l 128 272 b 140 274 132 274 136 274 z m 351 224 l 296 224 l 296 271 l 361 271 l 361 306 l 256 306 l 256 104 l 361 104 l 361 138 l 296 138 l 296 190 l 351 190 z m 138 101 l 138 101 b 224 204 200 101 224 133 b 139 308 224 274 201 308 b 88 303 125 308 106 306 l 88 104 b 138 101 106 101 126 101 z m 397 306 l 397 306 b 388 104 393 257 389 169 l 426 104 b 429 249 426 151 428 201 l 431 249 l 458 135 l 496 135 l 524 249 b 528 104 526 201 528 151 l 568 104 b 560 306 565 169 563 257 l 504 306 l 478 194 l 451 306 z m 669 101 l 669 101 b 744 204 725 101 744 133 b 669 308 744 275 725 308 b 596 204 614 308 596 275 b 669 101 596 133 614 101 z m 669 274 b 704 204 699 274 704 250 b 669 135 704 160 699 135 b 636 204 642 135 636 160 b 669 274 636 250 642 274 z m 656 689 l 656 689 b 439 429 540 689 439 429 b 669 529 497 486 569 518 b 742 601 699 533 742 558 b 656 689 742 631 728 689 z m 193 617 l 193 617 b 107 529 136 617 107 574 b 193 457 107 486 150 457 b 410 357 281 457 353 429 b 193 617 410 357 324 617 z m 436 824 l 436 824 b 313 822 394 864 343 853 b 325 710 283 790 294 740 b 410 486 388 650 419 578 b 436 824 410 486 529 733 z "},"`":{"ha":831,"x_min":0,"x_max":0,"o":"m 140 274 l 140 274 b 183 204 176 274 183 249 b 140 135 183 161 176 135 b 128 136 136 135 131 135 l 128 272 b 140 274 132 274 136 274 z m 351 224 l 296 224 l 296 271 l 361 271 l 361 306 l 256 306 l 256 104 l 361 104 l 361 138 l 296 138 l 296 190 l 351 190 z m 138 101 l 138 101 b 224 204 200 101 224 133 b 139 308 224 274 201 308 b 88 303 125 308 106 306 l 88 104 b 138 101 106 101 126 101 z m 397 306 l 397 306 b 388 104 393 257 389 169 l 426 104 b 429 249 426 151 428 201 l 431 249 l 458 135 l 496 135 l 524 249 b 528 104 526 201 528 151 l 568 104 b 560 306 565 169 563 257 l 504 306 l 478 194 l 451 306 z m 669 101 l 669 101 b 744 204 725 101 744 133 b 669 308 744 275 725 308 b 596 204 614 308 596 275 b 669 101 596 133 614 101 z m 669 274 b 704 204 699 274 704 250 b 669 135 704 160 699 135 b 636 204 642 135 636 160 b 669 274 636 250 642 274 z m 656 689 l 656 689 b 439 429 540 689 439 429 b 669 529 497 486 569 518 b 742 601 699 533 742 558 b 656 689 742 631 728 689 z m 193 617 l 193 617 b 107 529 136 617 107 574 b 193 457 107 486 150 457 b 410 357 281 457 353 429 b 193 617 410 357 324 617 z m 436 824 l 436 824 b 313 822 394 864 343 853 b 325 710 283 790 294 740 b 410 486 388 650 419 578 b 436 824 410 486 529 733 z "},"a":{"ha":718,"x_min":0,"x_max":0,"o":"m 293 -14 b 531 89 403 -14 486 26 l 535 89 l 535 0 l 649 0 l 649 464 b 374 714 649 646 550 714 b 83 486 169 714 83 619 l 204 486 b 367 614 204 574 257 615 b 524 463 524 613 524 526 l 524 443 b 49 196 347 424 49 440 b 293 -14 49 50 156 -14 z m 174 196 b 524 333 174 318 365 319 l 524 285 b 315 100 508 168 443 100 b 174 196 254 100 174 115 z "},"b":{"ha":771,"x_min":0,"x_max":0,"o":"m 413 -14 b 722 349 608 -14 722 132 b 415 714 722 551 622 714 b 199 632 333 714 254 689 l 194 632 l 194 978 l 69 978 l 69 0 l 185 0 l 185 79 l 189 79 b 413 -14 243 17 322 -14 z m 192 353 b 389 610 192 518 261 610 b 589 353 522 610 589 507 b 385 94 589 189 513 94 b 192 353 256 94 192 193 z "},"c":{"ha":738,"x_min":0,"x_max":0,"o":"m 379 -14 b 689 256 601 -14 682 125 l 563 256 b 381 96 556 150 490 96 b 181 350 249 96 181 176 b 381 604 181 528 250 604 b 563 444 490 604 556 550 l 689 444 b 379 714 682 575 601 714 b 49 350 117 714 49 519 b 379 -14 49 181 117 -14 z "},"d":{"ha":768,"x_min":0,"x_max":0,"o":"m 358 -14 b 582 79 449 -14 528 17 l 586 79 l 586 0 l 699 0 l 699 978 l 576 978 l 576 632 l 572 632 b 365 714 524 689 449 714 b 49 349 153 714 49 551 b 358 -14 49 132 163 -14 z m 182 353 b 383 610 182 507 249 610 b 579 353 510 610 579 518 b 386 92 579 193 515 92 b 182 353 258 92 182 189 z "},"e":{"ha":753,"x_min":0,"x_max":0,"o":"m 383 -14 b 700 217 610 -14 693 122 l 579 217 b 381 90 572 138 493 86 b 176 328 189 97 178 250 l 704 328 b 385 714 704 576 607 714 b 49 349 125 714 49 526 b 383 -14 49 194 106 -14 z m 179 429 b 383 610 193 551 271 610 b 578 429 496 610 578 551 z "},"f":{"ha":524,"x_min":0,"x_max":0,"o":"m 192 726 l 192 694 l 64 694 l 64 599 l 192 599 l 192 0 l 317 0 l 317 599 l 460 599 l 460 694 l 317 694 l 317 726 b 419 878 317 808 315 878 b 517 868 449 878 492 872 l 517 983 b 417 992 489 988 454 992 b 192 726 192 992 192 840 z "},"g":{"ha":765,"x_min":0,"x_max":0,"o":"m 379 -283 b 696 44 696 -283 696 -53 l 696 694 l 592 694 l 592 615 l 588 615 b 361 714 539 676 464 714 b 49 367 150 714 49 551 b 367 24 49 172 160 24 b 567 93 450 24 515 47 l 571 93 l 571 31 b 378 -175 571 -46 571 -175 b 217 -60 271 -175 224 -136 l 89 -60 b 379 -283 96 -196 185 -283 z m 182 365 b 386 610 182 506 250 610 b 578 363 522 610 578 506 b 389 131 578 208 515 131 b 182 365 254 131 182 221 z "},"h":{"ha":761,"x_min":0,"x_max":0,"o":"m 69 0 l 194 0 l 194 343 b 403 607 194 481 263 607 b 563 378 564 607 563 442 l 563 0 l 692 0 l 692 410 b 417 714 692 606 607 714 b 189 619 326 714 258 690 l 185 619 l 185 978 l 69 978 z "},"i":{"ha":275,"x_min":0,"x_max":0,"o":"m 72 0 l 204 0 l 204 694 l 72 694 z m 69 831 l 206 831 l 206 978 l 69 978 z "},"j":{"ha":289,"x_min":0,"x_max":0,"o":"m 32 -283 b 213 -93 214 -283 213 -168 l 213 694 l 88 694 l 88 -69 b -3 -176 88 -126 88 -176 b -78 -165 -32 -176 -58 -171 l -78 -271 b 32 -283 -50 -278 -8 -283 z m 83 831 l 219 831 l 219 978 l 83 978 z "},"k":{"ha":703,"x_min":0,"x_max":0,"o":"m 69 0 l 201 0 l 201 278 l 283 354 l 518 0 l 668 0 l 374 438 l 651 694 l 468 694 l 201 442 l 201 978 l 69 978 z "},"l":{"ha":268,"x_min":0,"x_max":0,"o":"m 69 0 l 199 0 l 199 978 l 69 978 z "},"m":{"ha":1193,"x_min":0,"x_max":0,"o":"m 69 0 l 201 0 l 201 335 b 386 608 201 485 251 608 b 532 372 497 608 532 524 l 532 0 l 661 0 l 661 335 b 840 608 661 475 707 608 b 993 372 993 608 993 435 l 993 0 l 1124 0 l 1124 410 b 875 714 1124 606 1042 714 b 629 599 768 714 683 669 l 625 599 b 415 714 586 675 522 714 b 196 632 328 714 251 688 l 192 632 l 192 694 l 69 694 z "},"n":{"ha":761,"x_min":0,"x_max":0,"o":"m 69 0 l 194 0 l 194 343 b 403 607 194 481 263 607 b 563 378 564 607 563 442 l 563 0 l 692 0 l 692 410 b 417 714 692 606 607 714 b 189 619 326 714 258 690 l 185 619 l 185 694 l 69 694 z "},"o":{"ha":781,"x_min":0,"x_max":0,"o":"m 390 -14 b 732 353 604 -14 732 119 b 390 714 732 583 604 714 b 49 351 176 714 49 583 b 390 -14 49 124 172 -14 z m 179 356 b 390 610 179 519 254 610 b 603 354 526 610 603 519 b 390 92 603 194 531 92 b 179 356 254 92 179 189 z "},"p":{"ha":778,"x_min":0,"x_max":0,"o":"m 69 -244 l 194 -244 l 194 67 l 199 67 b 421 -14 251 14 335 -14 b 729 351 631 -14 729 150 b 421 714 729 568 615 714 b 179 606 319 714 233 674 l 175 606 l 175 694 l 69 694 z m 199 347 b 393 608 199 501 263 608 b 596 347 519 608 596 511 b 396 92 596 194 529 92 b 199 347 268 92 199 188 z "},"q":{"ha":778,"x_min":0,"x_max":0,"o":"m 583 -244 l 708 -244 l 708 694 l 603 694 l 603 611 l 599 611 b 357 714 544 674 458 714 b 49 351 164 714 49 568 b 360 -14 49 150 147 -14 b 579 67 447 -14 531 14 l 583 67 z m 182 347 b 385 608 182 511 258 608 b 579 349 510 608 579 515 b 383 92 579 182 510 92 b 182 347 249 92 182 194 z "},"r":{"ha":483,"x_min":0,"x_max":0,"o":"m 69 0 l 194 0 l 194 357 b 404 604 194 531 265 604 b 469 594 432 604 449 600 l 469 711 b 419 714 467 711 447 714 b 189 615 325 714 253 682 l 185 615 l 185 694 l 69 694 z "},"s":{"ha":683,"x_min":0,"x_max":0,"o":"m 342 -14 b 635 194 531 -14 635 65 b 396 404 635 350 483 383 b 193 524 307 425 193 450 b 340 610 193 574 247 610 b 490 474 444 610 490 565 l 610 474 b 340 714 610 625 526 714 b 63 518 167 714 63 638 b 301 318 63 378 206 342 b 503 190 411 290 503 268 b 342 100 503 111 406 100 b 174 231 240 100 174 128 l 49 231 b 342 -14 49 47 171 -14 z "},"t":{"ha":513,"x_min":0,"x_max":0,"o":"m 349 -14 b 464 -1 392 -14 436 -8 l 464 106 b 382 94 444 100 415 94 b 285 201 285 94 285 140 l 285 599 l 429 599 l 429 694 l 285 694 l 285 899 l 158 899 l 158 694 l 33 694 l 33 599 l 158 599 l 158 176 b 349 -14 158 96 158 -14 z "},"u":{"ha":764,"x_min":0,"x_max":0,"o":"m 344 -14 b 572 81 435 -14 503 10 l 576 81 l 576 0 l 692 0 l 692 694 l 567 694 l 567 357 b 358 93 567 219 499 93 b 199 322 197 93 199 258 l 199 694 l 69 694 l 69 290 b 344 -14 69 94 154 -14 z "},"v":{"ha":747,"x_min":0,"x_max":0,"o":"m 286 -6 l 460 -6 l 713 694 l 571 694 l 376 124 l 371 124 l 175 694 l 35 694 z "},"w":{"ha":1131,"x_min":0,"x_max":0,"o":"m 239 -6 l 407 -6 l 564 571 l 569 571 l 725 -6 l 892 -6 l 1096 694 l 971 694 l 815 129 l 810 129 l 650 694 l 482 694 l 322 129 l 317 129 l 161 694 l 35 694 z "},"x":{"ha":740,"x_min":0,"x_max":0,"o":"m 35 0 l 183 0 l 368 276 l 371 276 l 556 0 l 706 0 l 456 354 l 697 694 l 547 694 l 369 436 l 367 436 l 189 694 l 39 694 l 283 351 z "},"y":{"ha":739,"x_min":0,"x_max":0,"o":"m 150 -283 b 426 -53 346 -283 394 -139 l 704 694 l 569 694 l 375 149 l 369 149 l 175 694 l 35 694 l 304 -7 b 139 -171 265 -100 254 -171 l 74 -171 l 74 -283 z "},"z":{"ha":644,"x_min":0,"x_max":0,"o":"m 35 0 l 608 0 l 608 108 l 197 108 l 197 113 l 610 600 l 610 694 l 42 694 l 42 586 l 442 586 l 442 582 l 35 94 z "},"{":{"ha":831,"x_min":0,"x_max":0,"o":"m 140 274 l 140 274 b 183 204 176 274 183 249 b 140 135 183 161 176 135 b 128 136 136 135 131 135 l 128 272 b 140 274 132 274 136 274 z m 351 224 l 296 224 l 296 271 l 361 271 l 361 306 l 256 306 l 256 104 l 361 104 l 361 138 l 296 138 l 296 190 l 351 190 z m 138 101 l 138 101 b 224 204 200 101 224 133 b 139 308 224 274 201 308 b 88 303 125 308 106 306 l 88 104 b 138 101 106 101 126 101 z m 397 306 l 397 306 b 388 104 393 257 389 169 l 426 104 b 429 249 426 151 428 201 l 431 249 l 458 135 l 496 135 l 524 249 b 528 104 526 201 528 151 l 568 104 b 560 306 565 169 563 257 l 504 306 l 478 194 l 451 306 z m 669 101 l 669 101 b 744 204 725 101 744 133 b 669 308 744 275 725 308 b 596 204 614 308 596 275 b 669 101 596 133 614 101 z m 669 274 b 704 204 699 274 704 250 b 669 135 704 160 699 135 b 636 204 642 135 636 160 b 669 274 636 250 642 274 z m 656 689 l 656 689 b 439 429 540 689 439 429 b 669 529 497 486 569 518 b 742 601 699 533 742 558 b 656 689 742 631 728 689 z m 193 617 l 193 617 b 107 529 136 617 107 574 b 193 457 107 486 150 457 b 410 357 281 457 353 429 b 193 617 410 357 324 617 z m 436 824 l 436 824 b 313 822 394 864 343 853 b 325 710 283 790 294 740 b 410 486 388 650 419 578 b 436 824 410 486 529 733 z "},"|":{"ha":831,"x_min":0,"x_max":0,"o":"m 140 274 l 140 274 b 183 204 176 274 183 249 b 140 135 183 161 176 135 b 128 136 136 135 131 135 l 128 272 b 140 274 132 274 136 274 z m 351 224 l 296 224 l 296 271 l 361 271 l 361 306 l 256 306 l 256 104 l 361 104 l 361 138 l 296 138 l 296 190 l 351 190 z m 138 101 l 138 101 b 224 204 200 101 224 133 b 139 308 224 274 201 308 b 88 303 125 308 106 306 l 88 104 b 138 101 106 101 126 101 z m 397 306 l 397 306 b 388 104 393 257 389 169 l 426 104 b 429 249 426 151 428 201 l 431 249 l 458 135 l 496 135 l 524 249 b 528 104 526 201 528 151 l 568 104 b 560 306 565 169 563 257 l 504 306 l 478 194 l 451 306 z m 669 101 l 669 101 b 744 204 725 101 744 133 b 669 308 744 275 725 308 b 596 204 614 308 596 275 b 669 101 596 133 614 101 z m 669 274 b 704 204 699 274 704 250 b 669 135 704 160 699 135 b 636 204 642 135 636 160 b 669 274 636 250 642 274 z m 656 689 l 656 689 b 439 429 540 689 439 429 b 669 529 497 486 569 518 b 742 601 699 533 742 558 b 656 689 742 631 728 689 z m 193 617 l 193 617 b 107 529 136 617 107 574 b 193 457 107 486 150 457 b 410 357 281 457 353 429 b 193 617 410 357 324 617 z m 436 824 l 436 824 b 313 822 394 864 343 853 b 325 710 283 790 294 740 b 410 486 388 650 419 578 b 436 824 410 486 529 733 z "},"}":{"ha":831,"x_min":0,"x_max":0,"o":"m 140 274 l 140 274 b 183 204 176 274 183 249 b 140 135 183 161 176 135 b 128 136 136 135 131 135 l 128 272 b 140 274 132 274 136 274 z m 351 224 l 296 224 l 296 271 l 361 271 l 361 306 l 256 306 l 256 104 l 361 104 l 361 138 l 296 138 l 296 190 l 351 190 z m 138 101 l 138 101 b 224 204 200 101 224 133 b 139 308 224 274 201 308 b 88 303 125 308 106 306 l 88 104 b 138 101 106 101 126 101 z m 397 306 l 397 306 b 388 104 393 257 389 169 l 426 104 b 429 249 426 151 428 201 l 431 249 l 458 135 l 496 135 l 524 249 b 528 104 526 201 528 151 l 568 104 b 560 306 565 169 563 257 l 504 306 l 478 194 l 451 306 z m 669 101 l 669 101 b 744 204 725 101 744 133 b 669 308 744 275 725 308 b 596 204 614 308 596 275 b 669 101 596 133 614 101 z m 669 274 b 704 204 699 274 704 250 b 669 135 704 160 699 135 b 636 204 642 135 636 160 b 669 274 636 250 642 274 z m 656 689 l 656 689 b 439 429 540 689 439 429 b 669 529 497 486 569 518 b 742 601 699 533 742 558 b 656 689 742 631 728 689 z m 193 617 l 193 617 b 107 529 136 617 107 574 b 193 457 107 486 150 457 b 410 357 281 457 353 429 b 193 617 410 357 324 617 z m 436 824 l 436 824 b 313 822 394 864 343 853 b 325 710 283 790 294 740 b 410 486 388 650 419 578 b 436 824 410 486 529 733 z "},"~":{"ha":831,"x_min":0,"x_max":0,"o":"m 140 274 l 140 274 b 183 204 176 274 183 249 b 140 135 183 161 176 135 b 128 136 136 135 131 135 l 128 272 b 140 274 132 274 136 274 z m 351 224 l 296 224 l 296 271 l 361 271 l 361 306 l 256 306 l 256 104 l 361 104 l 361 138 l 296 138 l 296 190 l 351 190 z m 138 101 l 138 101 b 224 204 200 101 224 133 b 139 308 224 274 201 308 b 88 303 125 308 106 306 l 88 104 b 138 101 106 101 126 101 z m 397 306 l 397 306 b 388 104 393 257 389 169 l 426 104 b 429 249 426 151 428 201 l 431 249 l 458 135 l 496 135 l 524 249 b 528 104 526 201 528 151 l 568 104 b 560 306 565 169 563 257 l 504 306 l 478 194 l 451 306 z m 669 101 l 669 101 b 744 204 725 101 744 133 b 669 308 744 275 725 308 b 596 204 614 308 596 275 b 669 101 596 133 614 101 z m 669 274 b 704 204 699 274 704 250 b 669 135 704 160 699 135 b 636 204 642 135 636 160 b 669 274 636 250 642 274 z m 656 689 l 656 689 b 439 429 540 689 439 429 b 669 529 497 486 569 518 b 742 601 699 533 742 558 b 656 689 742 631 728 689 z m 193 617 l 193 617 b 107 529 136 617 107 574 b 193 457 107 486 150 457 b 410 357 281 457 353 429 b 193 617 410 357 324 617 z m 436 824 l 436 824 b 313 822 394 864 343 853 b 325 710 283 790 294 740 b 410 486 388 650 419 578 b 436 824 410 486 529 733 z "}}}
